<svg width="52" height="51" viewBox="0 0 52 51" fill="none" xmlns="http://www.w3.org/2000/svg">
<path d="M2.57031 33.7266H25.9995" stroke="#EE2D31" stroke-width="3" stroke-linecap="round" stroke-linejoin="round"/>
<path d="M2.57031 17.2734L49.4993 17.2734" stroke="#EE2D31" stroke-width="3" stroke-linecap="round" stroke-linejoin="round"/>
<path d="M34.248 25.4762V2.02344" stroke="#554295" stroke-width="3" stroke-linecap="round" stroke-linejoin="round"/>
<path d="M17.7988 48.976L17.7988 2.02344" stroke="#554295" stroke-width="3" stroke-linecap="round" stroke-linejoin="round"/>
<path d="M49.4995 23.1498V18.4498C49.4995 6.69995 44.7996 2 33.0497 2L18.9498 2C7.19995 2 2.5 6.69995 2.5 18.4498L2.5 32.5497C2.5 44.2996 7.19995 48.9995 18.9498 48.9995H21.2998" stroke="#F79421" stroke-width="4" stroke-linecap="round" stroke-linejoin="round"/>
<path d="M41.8151 31.7762L32.0627 41.5283C31.6867 41.9043 31.3342 42.6328 31.2402 43.1498L30.6997 46.8863C30.5117 48.2258 31.4517 49.1893 32.7912 48.9778L36.5277 48.4373C37.0447 48.3668 37.7732 47.991 38.1491 47.615L47.9016 37.8624C49.57 36.1939 50.369 34.2202 47.9016 31.7527C45.4576 29.3087 43.5071 30.0842 41.8151 31.7762Z" stroke="#130C09" stroke-opacity="0.8" stroke-width="1.5" stroke-miterlimit="10" stroke-linecap="round"/>
<path d="M40.4297 33.1602C41.2522 36.1211 43.5787 38.4241 46.5396 39.2701" stroke="#130C09" stroke-opacity="0.8" stroke-width="1.5" stroke-miterlimit="10" stroke-linecap="round" stroke-linejoin="round"/>
</svg>
