<svg width="66" height="68" viewBox="0 0 66 68" fill="none" xmlns="http://www.w3.org/2000/svg">
<path d="M32.9995 16.7891V36.2589M32.9995 36.2589L16.8047 51.5779M32.9995 36.2589L49.1943 51.5779" stroke="#130C09" stroke-opacity="0.8" stroke-width="4"/>
<ellipse cx="32.9987" cy="14.3915" rx="13.7956" ry="14.3954" fill="#F79421"/>
<ellipse cx="14.4052" cy="53.3776" rx="14.3954" ry="13.7956" fill="#554295"/>
<ellipse cx="51.5927" cy="53.3776" rx="14.3954" ry="13.7956" fill="#EE2D31"/>
<path d="M58.7915 57.5782H53.8431M56.3173 55.179V59.9774M45.5957 59.9774C45.5957 56.8856 48.1804 54.3792 51.3689 54.3792C51.942 54.3792 52.4957 54.4602 53.0183 54.6111M54.6678 48.781C54.6678 50.5478 53.1908 51.98 51.3689 51.98C49.5469 51.98 48.0699 50.5478 48.0699 48.781C48.0699 47.0143 49.5469 45.582 51.3689 45.582C53.1908 45.582 54.6678 47.0143 54.6678 48.781Z" stroke="white" stroke-linecap="round" stroke-linejoin="round"/>
<path d="M21.602 57.5782H16.6536M19.1278 55.179V59.9774M8.40625 59.9774C8.40625 56.8856 10.991 54.3792 14.1794 54.3792C14.7526 54.3792 15.3062 54.4602 15.8289 54.6111M17.4783 48.781C17.4783 50.5478 16.0013 51.98 14.1794 51.98C12.3574 51.98 10.8805 50.5478 10.8805 48.781C10.8805 47.0143 12.3574 45.582 14.1794 45.582C16.0013 45.582 17.4783 47.0143 17.4783 48.781Z" stroke="white" stroke-linecap="round" stroke-linejoin="round"/>
<path d="M39.5962 19.1915H34.6477M37.122 16.7922V21.5907M26.4004 21.5907C26.4004 18.4989 28.9851 15.9925 32.1735 15.9925C32.7467 15.9925 33.3004 16.0735 33.823 16.2243M35.4725 10.3943C35.4725 12.161 33.9955 13.5933 32.1735 13.5933C30.3516 13.5933 28.8746 12.161 28.8746 10.3943C28.8746 8.62754 30.3516 7.19531 32.1735 7.19531C33.9955 7.19531 35.4725 8.62754 35.4725 10.3943Z" stroke="white" stroke-linecap="round" stroke-linejoin="round"/>
</svg>
