<svg width="48" height="49" viewBox="0 0 48 49" fill="none" xmlns="http://www.w3.org/2000/svg">
<path d="M17.5714 37.5329L11.1429 42.8901L11.1429 33.2472H4.63187C3.80124 33.2472 3.00465 32.9172 2.41729 32.3299C1.82996 31.7425 1.5 30.946 1.5 30.1154L1.5 5.30765C1.5 4.47702 1.82996 3.68043 2.41729 3.09307C3.00465 2.50574 3.80124 2.17578 4.63187 2.17578L39.0825 2.17578C39.9131 2.17578 40.7096 2.50574 41.2969 3.09307C41.8843 3.68043 42.2143 4.47702 42.2143 5.30765V14.6299" stroke="#EE2D31" stroke-width="3" stroke-linecap="round" stroke-linejoin="round"/>
<path d="M10.0703 11.7461L33.6417 11.7461" stroke="#554295" stroke-width="3" stroke-linecap="round" stroke-linejoin="round"/>
<path d="M10.0703 20.3203H20.7846" stroke="#554295" stroke-width="3" stroke-linecap="round" stroke-linejoin="round"/>
<path d="M35.7863 40.7483C40.5201 40.7483 44.3577 36.9107 44.3577 32.1769C44.3577 27.4431 40.5201 23.6055 35.7863 23.6055C31.0525 23.6055 27.2148 27.4431 27.2148 32.1769C27.2148 36.9107 31.0525 40.7483 35.7863 40.7483Z" stroke="#F79421" stroke-width="3" stroke-linecap="round" stroke-linejoin="round"/>
<path d="M46.5008 47.1763C45.4652 45.8818 43.9213 44.7991 42.0341 44.0443C40.1468 43.2894 37.9873 42.8906 35.7866 42.8906C33.5858 42.8906 31.4263 43.2894 29.5391 44.0443C27.6518 44.7991 26.1079 45.8818 25.0723 47.1763" stroke="#F79421" stroke-width="3" stroke-linecap="round" stroke-linejoin="round"/>
</svg>
